<?xml version="1.0" standalone="no"?>
<!DOCTYPE svg PUBLIC "-//W3C//DTD SVG 20010904//EN"
 "http://www.w3.org/TR/2001/REC-SVG-20010904/DTD/svg10.dtd">
<svg version="1.0" xmlns="http://www.w3.org/2000/svg"
 width="1254.000000pt" height="1254.000000pt" viewBox="0 0 1254.000000 1254.000000"
 preserveAspectRatio="xMidYMid meet">
<metadata>
Created by potrace 1.16, written by Peter Selinger 2001-2019
</metadata>
<g transform="translate(0.000000,1254.000000) scale(0.100000,-0.100000)"
fill="#002047" stroke="none">
<path d="M6045 11984 c-983 -61 -1879 -413 -2625 -1033 -699 -581 -1230 -1428
-1488 -2376 -67 -247 -122 -547 -154 -845 -16 -152 -16 -720 1 -875 100 -958
429 -1769 1017 -2510 143 -179 463 -507 634 -648 l105 -87 148 0 c81 0 147 2
147 4 0 2 -26 23 -57 47 -363 271 -668 572 -929 919 -734 977 -1034 2160 -858
3380 70 485 219 962 444 1415 143 288 247 460 426 701 644 869 1590 1454 2664
1648 602 108 1234 86 1815 -64 914 -236 1724 -772 2293 -1518 275 -361 491
-757 660 -1212 295 -795 367 -1696 201 -2515 -220 -1085 -819 -2049 -1679
-2704 -66 -51 -120 -94 -120 -97 0 -2 67 -4 149 -4 l148 0 114 96 c144 122
420 398 528 529 621 751 978 1582 1092 2546 18 152 22 241 22 514 1 322 -5
425 -39 685 -105 803 -439 1623 -928 2275 -716 955 -1825 1582 -3026 1710
-139 15 -580 27 -705 19z M5935 11610 c-274 -28 -495 -67 -750 -135 -963 -255
-1798 -859 -2348 -1697 -695 -1059 -919 -2391 -607 -3600 37 -146 130 -431
144 -445 3 -3 14 1 24 10 10 9 65 41 122 71 l103 54 2 148 2 148 33 27 c37 31
37 22 -7 278 -21 124 -30 155 -64 217 -92 167 -126 319 -116 518 23 458 339
867 786 1016 132 45 226 60 361 60 229 0 423 -59 618 -187 145 -96 363 -349
348 -406 -8 -34 -21 -37 -96 -21 -342 72 -725 -39 -941 -274 -273 -296 -273
-678 0 -953 77 -77 98 -92 201 -142 72 -35 150 -64 210 -78 129 -30 322 -36
452 -15 127 21 135 20 154 -9 15 -23 14 -27 -19 -87 -19 -35 -58 -98 -86 -141
-48 -73 -50 -79 -36 -100 11 -16 15 -52 15 -152 l0 -130 65 -42 c70 -47 137
-124 186 -217 l32 -59 -86 67 c-48 37 -126 90 -174 118 l-87 50 -111 -23 c-95
-21 -139 -24 -325 -24 -162 0 -242 5 -323 18 -256 43 -510 122 -752 234 -77
36 -149 67 -161 70 -32 7 -284 -124 -284 -149 0 -24 136 -310 215 -453 274
-495 685 -971 1152 -1335 63 -50 118 -90 123 -90 4 0 49 39 101 87 52 47 140
128 197 180 l103 93 295 0 294 0 0 104 c0 57 3 111 6 120 5 13 25 16 120 16
l113 0 3 77 c3 73 4 78 27 81 12 2 34 1 47 -2 l25 -7 -3 -127 -3 -127 -110 -5
-110 -5 -3 -110 c-2 -89 -6 -112 -19 -123 -11 -7 -51 -12 -110 -12 l-93 0 0
-138 c0 -94 -4 -142 -12 -150 -17 -17 -379 -17 -396 0 -7 7 -12 43 -12 90 0
93 5 98 109 98 84 0 91 -12 34 -59 l-38 -30 103 -1 102 0 0 95 0 95 -165 0
-165 0 -175 -161 c-96 -88 -175 -162 -175 -163 0 -2 25 -20 55 -40 l55 -36
2147 0 2148 0 47 32 c27 18 48 36 48 39 0 4 -80 79 -177 168 l-177 161 -163 0
-163 0 0 -95 0 -95 95 0 c52 0 95 3 95 8 0 4 -14 15 -31 24 -19 12 -29 24 -27
35 3 15 15 19 65 21 98 5 104 -2 101 -106 l-3 -87 -189 -3 c-130 -2 -193 1
-202 9 -11 9 -14 44 -14 150 l0 139 -99 0 c-69 0 -102 4 -109 13 -6 7 -13 62
-14 123 l-3 109 -110 5 -110 5 -8 98 c-4 55 -3 113 1 130 8 30 11 32 53 32
l44 0 3 -77 3 -77 112 -3 112 -3 3 -117 3 -118 299 0 299 0 202 -185 202 -185
51 37 c531 381 1007 945 1311 1553 238 477 376 937 441 1465 21 179 30 641 15
830 -82 1028 -487 1987 -1139 2695 -652 708 -1490 1137 -2492 1275 -135 19
-703 29 -845 15z m384 -531 l29 -13 -29 -18 c-16 -10 -38 -32 -48 -48 l-18
-31 -12 29 c-7 16 -28 38 -46 48 l-34 18 30 18 c17 10 38 32 47 48 l17 29 17
-33 c10 -19 31 -40 47 -47z m-1195 -309 c14 -69 32 -148 41 -177 15 -50 17
-52 68 -67 92 -26 170 -45 242 -57 l69 -12 -112 -23 c-62 -13 -144 -33 -183
-46 -69 -22 -70 -22 -84 -70 -8 -27 -26 -109 -41 -183 -15 -75 -28 -134 -29
-133 -2 2 -14 60 -29 130 -14 70 -32 151 -41 181 l-16 55 -67 21 c-37 12 -118
32 -180 44 l-114 23 84 18 c189 40 279 68 288 91 5 12 23 92 41 178 18 86 34
156 35 154 1 -1 14 -58 28 -127z m2454 13 c-18 -159 -62 -301 -139 -454 -119
-240 -308 -451 -650 -730 -83 -68 -158 -128 -165 -132 -11 -6 -35 8 -82 49
-111 94 -142 123 -142 134 0 14 228 431 292 535 179 290 411 497 673 600 77
31 181 63 206 64 13 1 14 -8 7 -66z m905 -755 c24 -28 21 -65 -8 -93 -30 -30
-54 -31 -89 -4 -35 27 -35 71 0 105 29 30 67 27 97 -8z m-1985 -26 c-1 -4 -38
-71 -80 -148 l-77 -140 -58 -17 c-32 -10 -103 -30 -158 -47 -54 -16 -100 -28
-101 -27 -2 1 50 72 114 156 l117 154 110 38 c114 39 139 45 133 31z m-2724
-236 c14 -65 31 -125 37 -132 13 -15 46 -25 194 -59 91 -20 97 -23 65 -29 -19
-4 -86 -18 -148 -32 -95 -22 -115 -29 -122 -48 -4 -12 -21 -82 -36 -155 l-28
-133 -17 90 c-20 102 -49 211 -58 217 -9 5 -198 52 -246 61 l-40 7 60 13 c187
43 223 56 234 83 14 33 61 230 62 256 l0 20 9 -20 c4 -11 19 -73 34 -139z
m3179 -328 l-8 -66 -135 -145 c-74 -80 -136 -145 -137 -144 -1 1 7 63 17 137
11 74 19 154 20 177 0 37 5 45 43 75 23 18 78 63 122 100 l80 68 3 -67 c1 -38
-1 -98 -5 -135z m-520 21 l68 -62 -34 -36 c-54 -57 -186 -226 -269 -347 -370
-534 -640 -1181 -752 -1805 -56 -307 -67 -432 -73 -806 l-6 -353 -173 0 -173
0 -5 33 c-26 155 -34 564 -16 762 82 871 535 1809 1242 2568 55 59 105 107
111 107 7 0 43 -28 80 -61z m-1633 -319 c43 -43 11 -120 -49 -120 -32 0 -71
39 -71 70 0 10 9 29 21 44 25 32 70 35 99 6z m4276 -326 c30 -29 27 -67 -8
-96 -66 -57 -149 39 -91 105 23 25 69 21 99 -9z m-6006 -57 c21 -15 21 -15 2
-22 -12 -3 -30 -20 -41 -37 l-20 -32 -12 27 c-7 15 -25 32 -40 39 l-27 12 29
18 c16 10 35 29 41 43 l11 25 18 -29 c9 -16 27 -36 39 -44z m4409 -342 c11
-20 34 -42 51 -48 l29 -13 -34 -18 c-19 -11 -40 -32 -47 -47 -16 -36 -23 -36
-38 0 -7 18 -27 37 -48 47 l-36 17 35 16 c20 9 40 29 49 48 8 18 16 33 17 33
0 0 10 -16 22 -35z m-2875 -937 c53 -82 99 -189 128 -296 32 -117 32 -363 -1
-486 -29 -113 -81 -235 -129 -306 -32 -47 -45 -58 -91 -73 -83 -27 -86 -22
-36 63 62 104 110 230 136 352 28 135 22 297 -15 441 -28 108 -106 282 -161
358 -19 27 -35 51 -35 53 0 2 36 -5 80 -16 l80 -20 44 -70z m1746 -203 c17
-21 42 -133 231 -1060 131 -640 136 -661 142 -645 3 8 15 58 27 110 66 292
154 637 168 653 16 18 48 22 69 9 6 -4 62 -112 124 -240 l112 -232 366 0 366
0 0 138 c1 131 2 141 33 217 39 97 88 164 167 227 185 150 451 138 625 -28
l59 -56 58 51 c78 70 182 120 276 134 66 9 85 8 163 -11 49 -12 111 -36 142
-54 107 -65 204 -196 237 -323 16 -65 20 -227 6 -287 -9 -38 -9 -38 24 -38 27
0 35 5 45 30 26 63 110 108 178 95 82 -14 152 -96 152 -176 -1 -50 -33 -112
-75 -145 -28 -21 -50 -29 -93 -32 -71 -4 -115 18 -156 77 -27 40 -30 42 -73
39 -45 -3 -47 -4 -78 -64 -115 -217 -367 -480 -702 -731 -112 -84 -93 -86
-241 26 -235 176 -440 371 -565 536 -56 75 -137 223 -137 252 0 10 -80 13
-413 13 -315 0 -417 3 -430 13 -9 6 -53 88 -98 182 -78 160 -83 168 -91 140
-5 -17 -38 -151 -74 -300 -125 -520 -135 -560 -147 -567 -16 -10 -49 -10 -66
1 -7 5 -26 71 -42 152 -16 79 -54 259 -84 399 -45 209 -181 872 -227 1100 -6
30 -14 58 -18 63 -8 10 -82 -286 -276 -1108 -47 -203 -91 -376 -97 -382 -16
-22 -65 -16 -80 10 -8 12 -27 76 -42 142 -35 156 -115 468 -121 474 -6 7 -7 6
-82 -145 -39 -78 -78 -149 -87 -158 -15 -14 -61 -16 -423 -16 -440 0 -452 1
-452 53 1 53 -11 52 412 57 l393 5 105 206 c58 113 109 211 113 217 14 21 65
14 81 -10 7 -13 42 -137 76 -275 34 -139 64 -253 65 -253 2 0 13 42 25 93 12
50 34 146 50 212 16 66 67 280 114 475 134 561 175 722 187 736 15 18 63 18
79 -1z m518 -2315 c42 -38 85 -70 96 -70 43 0 56 -27 56 -117 l0 -83 105 0
c124 0 117 8 113 -140 l-3 -95 -45 0 -45 0 -9 63 -10 62 -96 0 c-61 0 -100 4
-108 12 -7 7 -12 45 -12 99 l0 87 -80 66 -79 66 -498 0 -498 -1 -30 -25 c-16
-14 -52 -44 -80 -66 l-50 -40 -5 -97 -5 -96 -112 -3 -113 -3 0 -59 c0 -55 -2
-60 -25 -66 -14 -3 -36 -3 -49 0 -30 7 -39 52 -34 161 l3 70 111 3 112 3 4 84
c5 90 16 115 54 115 14 0 54 27 104 70 l81 70 536 0 535 0 76 -70z m-109 -264
c8 -9 10 -151 9 -507 l-3 -494 -50 0 -50 0 -3 448 -2 447 -403 -2 -402 -3 0
-355 0 -355 275 0 275 0 0 215 0 215 -148 3 -148 3 3 -98 3 -98 35 0 c33 0 35
2 40 40 5 39 6 40 45 40 l40 0 3 -83 c2 -53 -1 -89 -9 -98 -15 -18 -239 -20
-257 -2 -9 9 -12 69 -12 209 0 170 2 198 16 203 9 3 118 6 244 6 194 0 231 -2
244 -16 14 -13 16 -56 16 -315 0 -188 -4 -308 -10 -320 -10 -18 -25 -19 -378
-19 -273 0 -371 3 -380 12 -16 16 -17 889 -2 919 10 18 27 19 504 19 405 0
496 -2 505 -14z m-1174 -751 l0 -250 -313 -3 c-303 -2 -313 -2 -300 16 7 10
65 73 128 140 107 114 117 122 152 122 l38 0 0 103 c0 68 4 107 12 115 9 9 51
12 148 10 l135 -3 0 -250z m1613 243 c8 -8 12 -48 12 -114 l0 -103 38 -3 c34
-3 50 -16 165 -138 l127 -135 -301 -3 c-214 -2 -306 1 -315 9 -19 16 -20 469
-2 487 8 8 53 12 138 12 85 0 130 -4 138 -12z M7023 10420 c-89 -54 -104 -177
-29 -249 77 -75 202 -54 252 41 21 40 18 117 -6 156 -43 70 -147 95 -217 52z
M8360 6436 c-154 -45 -262 -164 -296 -328 -15 -68 -13 -183 3 -224 4 -11 48
-14 237 -14 l232 0 54 113 c47 96 59 112 81 115 14 2 31 -3 37 -11 10 -12 88
-256 138 -432 l17 -60 39 100 c21 55 55 145 74 200 42 115 48 125 79 125 30 0
54 -31 89 -114 l28 -66 214 0 214 0 11 27 c17 45 23 183 10 241 -48 224 -260
377 -460 332 -107 -24 -189 -79 -256 -173 -22 -31 -46 -59 -53 -62 -8 -3 -26
9 -40 27 -79 97 -159 165 -217 187 -74 28 -175 35 -235 17z M8624 5827 l-30
-62 -242 -3 c-133 -1 -242 -5 -242 -8 0 -12 56 -113 90 -164 79 -116 312 -346
495 -489 162 -126 134 -123 250 -29 278 223 485 434 574 586 17 29 31 57 31
62 0 6 -85 10 -215 10 l-215 0 -26 52 c-21 42 -28 49 -36 35 -5 -9 -42 -105
-83 -214 -41 -108 -83 -206 -94 -216 -18 -19 -22 -19 -43 -5 -20 13 -35 53
-83 214 -32 110 -65 220 -72 247 -8 26 -18 47 -21 47 -4 0 -21 -28 -38 -63z
M9890 5840 c-30 -30 -27 -83 6 -109 49 -39 108 -17 120 44 13 68 -77 114 -126
65z M5397 4083 c-4 -3 -7 -48 -7 -99 0 -85 -2 -94 -21 -105 -12 -6 -36 -9 -55
-7 -29 3 -40 -2 -71 -34 l-37 -38 137 0 137 0 0 145 0 145 -38 0 c-21 0 -42
-3 -45 -7z M7020 3945 l0 -145 130 0 c72 0 130 3 130 7 0 4 -14 21 -31 39 -27
28 -36 31 -69 27 -29 -4 -42 -1 -59 16 -18 18 -21 33 -21 111 l0 90 -40 0 -40
0 0 -145z M3465 8164 c-49 -7 -130 -28 -180 -45 -341 -117 -577 -366 -682
-718 -27 -94 -42 -279 -28 -367 l7 -49 18 52 c36 109 107 181 200 203 112 27
216 -36 279 -170 23 -48 26 -68 26 -155 0 -87 -3 -107 -26 -155 -54 -115 -132
-174 -229 -174 -32 1 -69 8 -88 18 -19 10 -35 16 -37 14 -2 -2 25 -176 63
-398 l7 -44 125 -57 c371 -170 697 -252 1060 -265 172 -6 317 10 331 36 5 8
36 60 69 114 33 55 59 101 57 102 -1 1 -29 -3 -62 -8 -91 -15 -334 -3 -435 22
-269 66 -457 193 -579 391 -253 411 -75 921 406 1163 151 76 377 122 551 113
l103 -6 -20 27 c-30 41 -129 135 -192 180 -126 91 -306 162 -460 182 -106 13
-171 12 -284 -6z M2781 7133 c-72 -36 -119 -144 -108 -249 6 -62 49 -148 88
-177 39 -29 107 -33 145 -8 77 48 125 168 105 262 -32 149 -129 222 -230 172z
M2730 5991 l0 -108 138 -66 c238 -114 488 -194 752 -239 169 -29 500 -30 630
-2 l85 19 3 94 3 94 -31 -7 c-158 -31 -428 -32 -625 -1 -267 41 -541 129 -840
270 l-115 54 0 -108z M1777 3343 c-4 -3 -7 -285 -7 -625 l0 -618 130 0 130 0
0 255 0 255 420 0 420 0 0 -255 0 -255 130 0 130 0 0 625 0 625 -130 0 -130 0
0 -250 0 -250 -420 0 -420 0 0 250 0 250 -123 0 c-68 0 -127 -3 -130 -7z
M3770 2725 l0 -625 590 0 590 0 0 115 0 115 -460 0 -460 0 0 140 0 140 393 2
392 3 0 115 0 115 -393 0 -392 0 0 132 0 133 458 2 457 3 0 115 0 115 -587 3
-588 2 0 -625z M6458 2917 l-3 -433 -25 -49 c-20 -38 -37 -55 -75 -75 -48 -24
-55 -25 -250 -25 -184 0 -204 2 -247 22 -54 25 -78 56 -85 113 l-6 40 -129 0
-130 0 7 -62 c25 -218 141 -322 388 -349 135 -15 432 -6 511 16 160 43 266
155 296 315 6 30 10 237 10 486 l0 434 -130 0 -129 0 -3 -433z M7907 3328
c-15 -24 -512 -882 -636 -1097 -39 -68 -71 -125 -71 -127 0 -2 66 -4 148 -4
l147 1 101 177 c378 667 450 792 454 791 3 0 46 -72 95 -161 50 -88 116 -206
147 -262 32 -55 113 -201 180 -323 l123 -223 149 0 c133 0 148 2 142 16 -7 19
-55 102 -430 759 -142 248 -263 456 -268 463 -7 8 -48 12 -139 12 -123 0 -129
-1 -142 -22z M9350 2938 c0 -326 3 -428 15 -483 38 -181 139 -286 321 -337 73
-20 102 -22 364 -23 243 0 295 3 350 18 142 39 243 111 298 215 58 109 62 143
62 605 l0 417 -124 0 -125 0 -3 -397 c-3 -356 -6 -403 -22 -448 -10 -27 -27
-62 -38 -78 -30 -42 -107 -76 -200 -89 -93 -12 -400 -5 -462 11 -60 15 -117
60 -145 116 l-26 49 -3 418 -3 418 -130 0 -129 0 0 -412z M7985 2536 c-37 -16
-83 -68 -91 -102 -10 -41 1 -119 22 -147 69 -93 217 -86 273 13 43 76 21 169
-51 223 -34 25 -113 32 -153 13z M1900 1768 c-54 -28 -82 -72 -82 -132 -2
-117 120 -191 228 -140 45 21 50 31 28 55 -15 17 -20 17 -38 6 -54 -35 -122
-21 -145 29 -42 92 57 185 137 128 21 -15 25 -15 43 2 27 24 24 31 -21 54 -51
26 -95 25 -150 -2z M2217 1784 c-4 -4 -7 -74 -7 -156 l0 -148 30 0 31 0 -3
153 c-3 144 -4 152 -23 155 -12 2 -24 0 -28 -4z M2420 1782 c-6 -2 -10 -63
-10 -153 l0 -149 110 0 110 0 0 30 0 30 -80 0 -80 0 0 35 0 35 70 0 c68 0 70
1 70 25 0 24 -2 25 -70 25 l-70 0 0 35 0 35 81 0 80 0 -3 26 c-3 26 -3 26
-101 28 -53 0 -102 0 -107 -2z M3206 1767 c-100 -57 -102 -207 -4 -267 44 -27
122 -27 166 0 36 22 38 27 17 50 -15 16 -18 16 -54 -2 -48 -24 -82 -17 -116
24 -71 85 33 205 124 142 21 -15 24 -15 43 4 24 24 20 34 -26 56 -47 22 -104
20 -150 -7z M3510 1635 l0 -155 30 0 31 0 -3 152 -3 151 -27 4 -28 4 0 -156z
M3780 1766 c-4 -11 -33 -78 -63 -148 -30 -70 -52 -129 -49 -132 3 -3 16 -6 29
-6 17 0 28 10 40 35 17 35 17 35 83 35 l66 0 13 -35 c10 -29 17 -35 42 -35 16
0 29 5 29 11 0 9 -108 276 -116 288 -2 2 -17 5 -34 6 -24 2 -33 -2 -40 -19z
m64 -113 c9 -26 16 -48 16 -50 0 -2 -18 -3 -40 -3 -22 0 -40 3 -40 7 0 16 33
93 40 93 5 0 15 -21 24 -47z M5734 1770 c-51 -26 -84 -82 -84 -141 0 -86 65
-149 153 -149 92 0 151 62 151 157 0 115 -116 186 -220 133z m121 -56 c14 -9
29 -32 34 -51 24 -86 -56 -159 -128 -117 -56 33 -67 103 -25 153 30 36 78 42
119 15z M6090 1772 c-26 -13 -37 -26 -44 -54 -13 -53 9 -81 85 -109 66 -24 81
-42 55 -67 -16 -16 -30 -15 -118 14 -10 4 -20 -2 -27 -15 -10 -18 -8 -23 21
-41 79 -48 198 -10 198 64 0 46 -23 72 -83 91 -28 10 -58 23 -66 31 -34 32 42
59 91 33 18 -9 24 -8 35 7 19 27 16 34 -22 50 -46 19 -82 18 -125 -4z M9043
1783 c-30 -6 -73 -59 -73 -89 0 -34 39 -70 91 -84 73 -20 91 -50 44 -72 -20
-9 -34 -8 -67 5 -40 16 -43 16 -61 -2 -18 -18 -18 -19 16 -40 22 -14 51 -21
81 -21 78 0 115 30 116 92 0 44 -31 73 -96 89 -24 6 -49 17 -55 25 -28 34 44
59 93 33 18 -9 24 -8 35 7 19 26 17 30 -27 48 -40 16 -55 17 -97 9z M10025
1783 c-66 -17 -122 -105 -110 -172 15 -83 73 -131 157 -131 40 0 108 29 108
47 0 3 -7 15 -17 25 -15 17 -17 17 -35 1 -12 -11 -36 -18 -60 -18 -54 0 -88
38 -88 98 1 80 67 120 139 82 26 -13 30 -13 47 6 21 23 16 28 -43 55 -32 14
-61 16 -98 7z M10280 1632 l0 -153 28 3 27 3 0 149 0 149 -27 1 -28 2 0 -154z
M10513 1770 c-62 -27 -85 -70 -81 -145 6 -95 57 -145 150 -145 60 0 105 30
130 86 36 83 1 177 -79 210 -43 19 -70 17 -120 -6z m108 -50 c21 -12 49 -60
49 -85 0 -31 -31 -82 -56 -94 -40 -18 -63 -13 -95 18 -78 78 6 212 102 161z
M2750 1631 l0 -151 30 0 29 0 3 98 3 97 74 -97 c63 -84 78 -98 102 -98 l29 0
0 150 0 150 -30 0 -29 0 -3 -96 -3 -96 -70 94 c-61 80 -75 93 -103 96 l-32 3
0 -150z M4690 1629 l0 -151 89 4 c62 3 97 9 115 22 90 58 87 209 -5 258 -25
13 -55 18 -116 18 l-83 0 0 -151z m181 72 c31 -32 38 -75 17 -114 -18 -35 -40
-46 -90 -47 l-48 0 0 95 0 95 46 0 c37 0 51 -5 75 -29z M5124 1743 c-9 -21
-36 -85 -60 -141 -24 -57 -44 -108 -44 -113 0 -5 13 -9 28 -9 22 0 32 7 45 35
16 35 18 35 80 35 63 0 63 0 76 -35 10 -29 17 -35 42 -35 16 0 29 5 29 11 0 6
-26 73 -57 150 -58 139 -58 139 -91 139 -29 0 -35 -5 -48 -37z m70 -83 c22
-57 21 -60 -25 -60 -29 0 -40 4 -36 13 2 6 10 29 18 50 7 20 16 37 20 37 4 0
14 -18 23 -40z M5350 1755 c0 -23 4 -25 45 -25 l45 0 0 -125 0 -125 30 0 30 0
0 125 0 125 45 0 c41 0 45 2 45 25 l0 25 -120 0 -120 0 0 -25z M6832 1772 c2
-5 28 -73 58 -151 l55 -142 34 3 c33 3 34 4 92 148 32 80 59 146 59 148 0 1
-15 2 -34 2 -33 0 -33 0 -72 -105 -21 -58 -42 -105 -45 -105 -3 0 -24 47 -45
105 -39 104 -39 105 -72 105 -19 0 -32 -4 -30 -8z M7212 1633 l3 -148 30 0 30
0 3 148 3 147 -36 0 -36 0 3 -147z M7390 1630 l0 -150 73 0 c127 0 197 55 197
155 0 99 -60 145 -187 145 l-83 0 0 -150z m181 71 c31 -32 38 -75 17 -114 -18
-35 -40 -46 -90 -47 l-48 0 0 95 0 95 46 0 c37 0 51 -5 75 -29z M7833 1763
c-4 -10 -31 -74 -60 -142 -29 -68 -53 -128 -53 -132 0 -5 13 -9 30 -9 25 0 32
6 44 35 15 35 15 35 80 35 66 0 66 0 80 -35 13 -30 20 -35 47 -35 26 0 30 3
24 18 -3 9 -31 77 -62 150 l-56 132 -34 0 c-23 0 -36 -6 -40 -17z m77 -150 c0
-8 -15 -13 -41 -13 -37 0 -40 2 -33 23 3 12 13 36 22 52 l15 30 18 -40 c10
-22 19 -46 19 -52z M8660 1630 l0 -150 111 0 110 0 -3 28 c-3 27 -4 27 -80 30
l-78 3 0 34 0 35 70 0 c68 0 70 1 70 25 0 24 -2 25 -70 25 l-70 0 0 35 0 35
80 0 c79 0 80 0 80 25 l0 25 -110 0 -110 0 0 -150z M9290 1630 l0 -150 30 0
c29 0 30 1 30 50 l0 50 45 0 c52 0 99 21 115 49 5 11 10 38 10 59 0 33 -6 45
-31 66 -28 23 -39 26 -115 26 l-84 0 0 -150z m165 66 c8 -24 6 -31 -14 -48
-15 -12 -36 -18 -55 -16 -29 3 -31 5 -34 51 l-3 48 48 -3 c42 -3 49 -6 58 -32z
M9672 1763 c-19 -36 -112 -263 -112 -273 0 -5 13 -10 29 -10 25 0 31 6 41 35
l12 35 67 0 67 0 13 -35 c10 -29 17 -35 42 -35 16 0 29 4 29 9 0 4 -26 71 -58
147 -56 133 -60 139 -90 142 -22 2 -33 -2 -40 -15z m62 -110 c9 -26 16 -48 16
-50 0 -2 -18 -3 -40 -3 -22 0 -40 3 -40 7 0 16 33 93 40 93 5 0 15 -21 24 -47z
M4282 1674 c-26 -18 -30 -65 -6 -88 23 -24 70 -20 88 6 21 30 20 54 -4 78 -24
24 -48 25 -78 4z M6529 1683 c-24 -6 -40 -48 -30 -77 15 -39 66 -49 94 -18 23
25 21 58 -3 82 -20 20 -29 22 -61 13z M8290 1670 c-25 -25 -26 -62 -2 -83 39
-35 102 -9 102 41 0 28 -34 62 -60 62 -11 0 -29 -9 -40 -20z M3946 1134 c-12
-11 -16 -36 -16 -90 l0 -74 -217 -1 c-120 -1 -483 -5 -808 -8 l-590 -6 0 -25
0 -25 140 -2 c77 -1 291 -7 475 -13 948 -29 1071 -32 1086 -19 10 8 14 33 14
85 0 60 3 75 18 83 20 11 316 13 382 3 l45 -7 5 -85 5 -85 39 -3 c21 -2 43 1
49 7 14 14 9 251 -5 268 -8 10 -79 13 -309 13 -257 0 -300 -2 -313 -16z M4746
1134 c-13 -13 -16 -44 -16 -185 l0 -169 -232 2 -233 3 0 40 0 40 59 5 c69 6
87 23 68 64 -11 25 -14 26 -110 26 -63 0 -102 -4 -110 -12 -17 -17 -17 -249 0
-266 17 -17 629 -17 646 0 8 8 12 61 12 172 0 89 4 167 8 173 6 10 88 13 335
14 179 0 331 -2 337 -6 15 -9 14 -382 -2 -391 -15 -9 -363 -8 -378 1 -13 8
-11 153 2 161 5 3 52 5 105 5 59 -1 101 3 109 10 17 14 18 71 2 87 -17 17
-299 17 -316 0 -17 -17 -17 -349 0 -366 17 -17 559 -17 576 0 17 17 17 579 0
596 -9 9 -118 12 -429 12 -366 0 -420 -2 -433 -16z M5822 1138 c-9 -9 -12
-111 -12 -399 0 -339 2 -390 16 -403 13 -14 66 -16 429 -16 363 0 416 2 429
16 14 13 16 55 16 299 0 244 -2 286 -16 299 -13 14 -56 16 -313 16 -242 0
-301 -3 -310 -14 -8 -9 -11 -73 -9 -207 l3 -194 189 -3 c133 -2 193 1 203 9
10 9 13 36 11 113 l-3 101 -87 3 c-86 3 -88 2 -94 -23 -8 -34 11 -55 52 -55
30 0 34 -3 34 -25 l0 -26 -102 3 -103 3 0 100 0 100 218 3 217 2 -2 -202 -3
-203 -330 0 -330 0 -3 303 -2 302 371 0 c236 0 377 4 390 10 22 12 27 68 7 88
-17 17 -849 17 -866 0z M6901 1136 c-8 -9 -12 -103 -13 -300 -1 -241 1 -289
13 -297 15 -10 518 -13 543 -3 14 5 16 31 16 183 0 124 -4 181 -12 189 -17 17
-279 17 -296 0 -7 -7 -12 -26 -12 -43 0 -49 14 -55 122 -55 l98 0 0 -84 0 -83
-101 -8 c-55 -3 -138 -4 -185 0 l-84 7 0 199 0 199 313 -2 312 -3 3 -171 c2
-129 6 -175 16 -183 9 -8 104 -11 317 -9 l304 3 3 134 c2 101 -1 136 -10 143
-17 10 -179 10 -196 -1 -8 -5 -12 -22 -10 -42 3 -33 4 -34 58 -39 l55 -5 3
-42 3 -43 -83 -2 c-46 -1 -139 -1 -208 0 -69 1 -131 2 -137 2 -10 0 -13 41
-13 173 0 121 -4 177 -12 185 -19 19 -791 17 -807 -2z M7866 1134 c-13 -12
-16 -39 -16 -129 0 -62 3 -120 6 -129 4 -11 19 -16 45 -16 49 0 59 18 59 108
l0 70 31 6 c51 10 369 7 389 -4 16 -9 18 -19 13 -78 -9 -113 -39 -106 393 -93
203 6 509 16 679 21 171 5 385 10 476 10 125 0 170 3 184 14 16 12 17 16 6 30
-12 14 -63 16 -476 16 -254 0 -618 3 -808 7 l-347 6 0 69 c0 117 26 108 -320
108 -258 0 -301 -2 -314 -16z M2056 1039 c-91 -25 -112 -151 -32 -200 65 -40
146 -11 167 60 25 85 -50 163 -135 140z M10297 1029 c-25 -15 -47 -63 -47
-105 0 -54 53 -104 110 -104 57 0 110 50 110 104 0 44 -22 91 -49 106 -25 13
-101 13 -124 -1z"/>
</g>
</svg>
